<?xml version="1.0" encoding="UTF-8" standalone="no"?>
<svg width="48" height="48" viewBox="0 0 48 48" fill="none" xmlns="http://www.w3.org/2000/svg">
  <rect width="48" height="48" rx="10" fill="#FEE500" />
  <circle cx="24" cy="24" r="14" fill="#000000" />
  <path d="M19.5 20C19.5 19.4477 19.9477 19 20.5 19C21.0523 19 21.5 19.4477 21.5 20V28C21.5 28.5523 21.0523 29 20.5 29C19.9477 29 19.5 28.5523 19.5 28V20Z" fill="#FEE500"/>
  <path d="M24 19C22.067 19 20.5 20.567 20.5 22.5V25.5C20.5 27.433 22.067 29 24 29C25.933 29 27.5 27.433 27.5 25.5V22.5C27.5 20.567 25.933 19 24 19ZM24 21C24.8284 21 25.5 21.6716 25.5 22.5V25.5C25.5 26.3284 24.8284 27 24 27C23.1716 27 22.5 26.3284 22.5 25.5V22.5C22.5 21.6716 23.1716 21 24 21Z" fill="#FEE500"/>
  <path d="M26.5 20C26.5 19.4477 26.9477 19 27.5 19C28.0523 19 28.5 19.4477 28.5 20V25.5C28.5 26.0523 28.0523 26.5 27.5 26.5C26.9477 26.5 26.5 26.0523 26.5 25.5V20Z" fill="#FEE500"/>
</svg> 